<?xml version="1.0" encoding="UTF-8"?>
<!DOCTYPE svg PUBLIC "-//W3C//DTD SVG 1.1//EN" "http://www.w3.org/Graphics/SVG/1.1/DTD/svg11.dtd">
<svg xmlns="http://www.w3.org/2000/svg" version="1.1" width="100px" height="100px" style="shape-rendering:geometricPrecision; text-rendering:geometricPrecision; image-rendering:optimizeQuality; fill-rule:evenodd; clip-rule:evenodd" xmlns:xlink="http://www.w3.org/1999/xlink">
<g><path style="opacity:1" fill="#dfd9cb" d="M 43.5,-0.5 C 47.5,-0.5 51.5,-0.5 55.5,-0.5C 58.246,0.251327 60.9127,1.25133 63.5,2.5C 64.9678,3.80573 66.3012,5.30573 67.5,7C 67.1667,7.33333 66.8333,7.66667 66.5,8C 68.967,10.0433 68.967,12.2099 66.5,14.5C 65.5,13.8333 64.5,13.1667 63.5,12.5C 62.2997,13.5312 60.9663,14.3645 59.5,15C 61.7898,17.116 63.4564,19.616 64.5,22.5C 62.9382,22.2671 61.6049,21.6005 60.5,20.5C 43.7122,12.0773 30.3789,15.744 20.5,31.5C 19.7784,31.0825 19.2784,30.4158 19,29.5C 17.8927,32.492 16.226,33.1587 14,31.5C 13.7613,29.2752 14.5946,28.9419 16.5,30.5C 16.8333,30 17.1667,29.5 17.5,29C 16.6458,28.4261 15.6458,27.7594 14.5,27C 15.5089,25.8319 16.5089,24.6652 17.5,23.5C 15.9954,20.8694 15.3287,21.2027 15.5,24.5C 14.5,24.5 13.5,24.5 12.5,24.5C 12.5,25.8333 12.5,27.1667 12.5,28.5C 9.81198,28.8342 7.47865,28.1675 5.5,26.5C 13.9664,11.5992 26.6331,2.59918 43.5,-0.5 Z"/></g>
<g><path style="opacity:0.249" fill="#fffefc" d="M 55.5,-0.5 C 57.5,-0.5 59.5,-0.5 61.5,-0.5C 81.1667,5.16667 93.8333,17.8333 99.5,37.5C 99.5,39.1667 99.5,40.8333 99.5,42.5C 97.8054,34.4426 94.4721,27.1093 89.5,20.5C 83.2773,11.0487 74.6107,5.04874 63.5,2.5C 60.9127,1.25133 58.246,0.251327 55.5,-0.5 Z"/></g>
<g><path style="opacity:1" fill="#ddd6c5" d="M 63.5,2.5 C 74.6107,5.04874 83.2773,11.0487 89.5,20.5C 85.247,20.566 84.5803,22.066 87.5,25C 85.7887,26.4352 84.622,28.2686 84,30.5C 81.1168,32.1699 78.6168,34.1699 76.5,36.5C 75.0106,34.1949 73.5106,31.8616 72,29.5C 69.0015,27.6671 66.5015,25.3338 64.5,22.5C 63.4564,19.616 61.7898,17.116 59.5,15C 60.9663,14.3645 62.2997,13.5312 63.5,12.5C 64.5,13.1667 65.5,13.8333 66.5,14.5C 68.967,12.2099 68.967,10.0433 66.5,8C 66.8333,7.66667 67.1667,7.33333 67.5,7C 66.3012,5.30573 64.9678,3.80573 63.5,2.5 Z"/></g>
<g><path style="opacity:1" fill="#f3ecec" d="M 60.5,20.5 C 61.3235,22.4546 61.4901,24.4546 61,26.5C 58.1882,24.0082 55.0215,22.5082 51.5,22C 55.1276,23.7919 57.4609,26.6253 58.5,30.5C 57.5529,32.4002 56.0529,33.7335 54,34.5C 51.4258,26.8924 50.2591,26.8924 50.5,34.5C 47.2084,34.1196 44.8751,35.4529 43.5,38.5C 42.8333,38.1667 42.1667,37.8333 41.5,37.5C 40.6858,35.2338 40.1858,32.9005 40,30.5C 38.7475,33.0135 38.2475,35.6802 38.5,38.5C 36.2075,38.2436 34.0408,38.5769 32,39.5C 31.6667,37.8333 31.3333,36.1667 31,34.5C 30.5774,35.9561 29.7441,36.4561 28.5,36C 27.7511,34.2663 27.2511,32.433 27,30.5C 25.6253,32.9368 25.1253,35.6035 25.5,38.5C 23.2143,38.405 21.2143,37.7384 19.5,36.5C 19.366,34.7085 19.6993,33.0418 20.5,31.5C 30.3789,15.744 43.7122,12.0773 60.5,20.5 Z"/></g>
<g><path style="opacity:1" fill="#d9d1c0" d="M 89.5,20.5 C 94.4721,27.1093 97.8054,34.4426 99.5,42.5C 99.5,45.5 99.5,48.5 99.5,51.5C 97.5436,49.1027 95.7102,49.1027 94,51.5C 94.4211,54.8295 95.2545,58.1628 96.5,61.5C 96.1667,61.5 95.8333,61.5 95.5,61.5C 89.69,60.5104 83.69,60.1771 77.5,60.5C 77.927,54.8864 77.2604,49.5531 75.5,44.5C 72.5893,34.3933 73.4227,34.06 78,43.5C 78.9876,46.4245 79.6543,49.4245 80,52.5C 80.5968,46.788 79.4301,41.4547 76.5,36.5C 78.6168,34.1699 81.1168,32.1699 84,30.5C 84.622,28.2686 85.7887,26.4352 87.5,25C 84.5803,22.066 85.247,20.566 89.5,20.5 Z"/></g>
<g><path style="opacity:0.262" fill="#fefefd" d="M 37.5,-0.5 C 39.5,-0.5 41.5,-0.5 43.5,-0.5C 26.6331,2.59918 13.9664,11.5992 5.5,26.5C 3.07535,32.1122 1.07535,37.7788 -0.5,43.5C -0.5,41.5 -0.5,39.5 -0.5,37.5C 5.16667,17.8333 17.8333,5.16667 37.5,-0.5 Z"/></g>
<g><path style="opacity:1" fill="#dbd6ca" d="M 20.5,31.5 C 19.6993,33.0418 19.366,34.7085 19.5,36.5C 19.2772,47.4983 18.9439,58.4983 18.5,69.5C 18.5,66.8333 18.5,64.1667 18.5,61.5C 13.1667,61.5 7.83333,61.5 2.5,61.5C 2.5,63.8333 2.5,66.1667 2.5,68.5C 1.3485,66.2209 0.348502,63.8876 -0.5,61.5C -0.5,55.5 -0.5,49.5 -0.5,43.5C 1.07535,37.7788 3.07535,32.1122 5.5,26.5C 7.47865,28.1675 9.81198,28.8342 12.5,28.5C 12.5,27.1667 12.5,25.8333 12.5,24.5C 13.5,24.5 14.5,24.5 15.5,24.5C 15.3287,21.2027 15.9954,20.8694 17.5,23.5C 16.5089,24.6652 15.5089,25.8319 14.5,27C 15.6458,27.7594 16.6458,28.4261 17.5,29C 17.1667,29.5 16.8333,30 16.5,30.5C 14.5946,28.9419 13.7613,29.2752 14,31.5C 16.226,33.1587 17.8927,32.492 19,29.5C 19.2784,30.4158 19.7784,31.0825 20.5,31.5 Z"/></g>
<g><path style="opacity:1" fill="#e1d1d7" d="M 60.5,20.5 C 61.6049,21.6005 62.9382,22.2671 64.5,22.5C 66.5015,25.3338 69.0015,27.6671 72,29.5C 73.5106,31.8616 75.0106,34.1949 76.5,36.5C 79.4301,41.4547 80.5968,46.788 80,52.5C 79.6543,49.4245 78.9876,46.4245 78,43.5C 73.4227,34.06 72.5893,34.3933 75.5,44.5C 74.8501,44.8039 74.1835,45.1373 73.5,45.5C 72.7568,44.0921 71.9234,42.7588 71,41.5C 70.6924,42.3081 70.1924,42.9747 69.5,43.5C 68.9322,41.5654 67.7655,40.2321 66,39.5C 64.4181,40.2948 64.2515,41.4615 65.5,43C 63.2447,45.7572 61.9114,48.9238 61.5,52.5C 60.1667,53.9335 58.6667,55.2668 57,56.5C 56.6667,54.5 56.3333,52.5 56,50.5C 55.6667,51.5 55.3333,52.5 55,53.5C 54.7468,50.2104 53.7468,47.2104 52,44.5C 49.2228,46.8789 49.0561,49.2123 51.5,51.5C 49.6096,51.2965 48.1096,51.9632 47,53.5C 46.586,53.0426 46.086,52.7093 45.5,52.5C 44.5713,53.6888 44.238,55.0222 44.5,56.5C 43.7494,57.5735 42.7494,57.7401 41.5,57C 39.1064,55.0478 37.6064,52.5478 37,49.5C 36.3131,51.5675 36.4798,53.5675 37.5,55.5C 37,56.5 36.5,57.5 36,58.5C 34.0531,54.7158 32.7198,50.7158 32,46.5C 30.1125,45.9805 28.7792,44.3138 28,41.5C 28.5875,49.1372 31.5875,55.8039 37,61.5C 37.3333,61.1667 37.6667,60.8333 38,60.5C 39.6171,61.8513 40.7838,63.518 41.5,65.5C 44.9939,67.0795 48.3272,68.9128 51.5,71C 48.8355,70.5203 46.1688,69.687 43.5,68.5C 33.1947,73.0142 27.6947,69.6809 27,58.5C 26.5314,64.1815 26.6981,69.8482 27.5,75.5C 28.5,75.5 29.5,75.5 30.5,75.5C 30.5,82.1667 30.5,88.8333 30.5,95.5C 24.9839,92.9109 19.9839,89.5775 15.5,85.5C 15.9926,83.1944 16.3259,80.861 16.5,78.5C 17.913,75.7814 18.5797,72.7814 18.5,69.5C 18.9439,58.4983 19.2772,47.4983 19.5,36.5C 21.2143,37.7384 23.2143,38.405 25.5,38.5C 25.1253,35.6035 25.6253,32.9368 27,30.5C 27.2511,32.433 27.7511,34.2663 28.5,36C 29.7441,36.4561 30.5774,35.9561 31,34.5C 31.3333,36.1667 31.6667,37.8333 32,39.5C 34.0408,38.5769 36.2075,38.2436 38.5,38.5C 38.2475,35.6802 38.7475,33.0135 40,30.5C 40.1858,32.9005 40.6858,35.2338 41.5,37.5C 42.1667,37.8333 42.8333,38.1667 43.5,38.5C 44.8751,35.4529 47.2084,34.1196 50.5,34.5C 50.2591,26.8924 51.4258,26.8924 54,34.5C 56.0529,33.7335 57.5529,32.4002 58.5,30.5C 57.4609,26.6253 55.1276,23.7919 51.5,22C 55.0215,22.5082 58.1882,24.0082 61,26.5C 61.4901,24.4546 61.3235,22.4546 60.5,20.5 Z"/></g>
<g><path style="opacity:1" fill="#f38886" d="M 99.5,51.5 C 99.5,54.8333 99.5,58.1667 99.5,61.5C 98.8333,62.8333 98.1667,64.1667 97.5,65.5C 96.7659,64.2921 96.4326,62.9587 96.5,61.5C 95.2545,58.1628 94.4211,54.8295 94,51.5C 95.7102,49.1027 97.5436,49.1027 99.5,51.5 Z"/></g>
<g><path style="opacity:1" fill="#cab6c1" d="M 75.5,44.5 C 77.2604,49.5531 77.927,54.8864 77.5,60.5C 83.69,60.1771 89.69,60.5104 95.5,61.5C 89.7945,61.1712 84.1278,61.5046 78.5,62.5C 79.7874,66.7062 81.1207,70.8729 82.5,75C 81.9056,75.4643 81.2389,75.631 80.5,75.5C 79.5769,73.233 78.7436,70.8997 78,68.5C 77.6667,68.8333 77.3333,69.1667 77,69.5C 76.6667,66.5 76.3333,63.5 76,60.5C 75.6667,60.1667 75.3333,59.8333 75,59.5C 73.295,61.5766 72.1283,63.91 71.5,66.5C 70.407,64.6508 69.0737,62.9842 67.5,61.5C 68.1033,57.2492 67.9366,52.9158 67,48.5C 66.6667,48.1667 66.3333,47.8333 66,47.5C 66.266,50.9008 64.766,52.5674 61.5,52.5C 61.9114,48.9238 63.2447,45.7572 65.5,43C 64.2515,41.4615 64.4181,40.2948 66,39.5C 67.7655,40.2321 68.9322,41.5654 69.5,43.5C 70.1924,42.9747 70.6924,42.3081 71,41.5C 71.9234,42.7588 72.7568,44.0921 73.5,45.5C 74.1835,45.1373 74.8501,44.8039 75.5,44.5 Z"/></g>
<g><path style="opacity:1" fill="#706a93" d="M 51.5,51.5 C 51.5,52.1667 51.1667,52.5 50.5,52.5C 49.5869,55.3001 47.5869,56.6334 44.5,56.5C 44.238,55.0222 44.5713,53.6888 45.5,52.5C 46.086,52.7093 46.586,53.0426 47,53.5C 48.1096,51.9632 49.6096,51.2965 51.5,51.5 Z"/></g>
<g><path style="opacity:1" fill="#534945" d="M 18.5,69.5 C 18.5797,72.7814 17.913,75.7814 16.5,78.5C 13.7104,78.2492 10.7104,78.2492 7.5,78.5C 5.30841,75.4502 3.64174,72.1168 2.5,68.5C 2.5,66.1667 2.5,63.8333 2.5,61.5C 7.83333,61.5 13.1667,61.5 18.5,61.5C 18.5,64.1667 18.5,66.8333 18.5,69.5 Z"/></g>
<g><path style="opacity:1" fill="#53443e" d="M 95.5,61.5 C 95.8333,61.5 96.1667,61.5 96.5,61.5C 96.4326,62.9587 96.7659,64.2921 97.5,65.5C 96.0349,71.7704 93.0349,77.1037 88.5,81.5C 88.5,80.1667 88.5,78.8333 88.5,77.5C 87.5,77.5 86.5,77.5 85.5,77.5C 85.5,80.1667 85.5,82.8333 85.5,85.5C 85.5,86.1667 85.1667,86.5 84.5,86.5C 83.5975,83.6085 83.2641,80.6085 83.5,77.5C 81.8212,77.7148 80.8212,77.0481 80.5,75.5C 81.2389,75.631 81.9056,75.4643 82.5,75C 81.1207,70.8729 79.7874,66.7062 78.5,62.5C 84.1278,61.5046 89.7945,61.1712 95.5,61.5 Z"/></g>
<g><path style="opacity:1" fill="#d0bcc8" d="M 44.5,56.5 C 47.5869,56.6334 49.5869,55.3001 50.5,52.5C 51.1544,56.6826 49.4877,59.516 45.5,61C 48.3897,64.4528 51.723,67.4528 55.5,70C 62.5032,70.4966 62.8365,71.1632 56.5,72C 58.8065,75.1319 61.6398,77.6319 65,79.5C 65.8115,84.433 67.3115,89.0997 69.5,93.5C 68.6378,95.767 66.9711,96.767 64.5,96.5C 63.6532,94.9709 62.9865,93.3042 62.5,91.5C 64.0893,88.7153 64.5893,85.7153 64,82.5C 62.9887,83.3366 61.8221,83.67 60.5,83.5C 60.1795,88.6946 60.5128,93.6946 61.5,98.5C 61.5,98.8333 61.5,99.1667 61.5,99.5C 59.8333,99.5 58.1667,99.5 56.5,99.5C 58.0234,97.6763 59.0234,95.5096 59.5,93C 59.6932,90.9919 59.0265,89.4919 57.5,88.5C 57.5,87.8333 57.5,87.1667 57.5,86.5C 59.8716,78.0253 56.5383,74.192 47.5,75C 45.1558,75.8372 43.1558,77.1706 41.5,79C 39.8659,79.4935 38.1992,79.6602 36.5,79.5C 36.3385,81.8244 35.1718,83.4911 33,84.5C 33.0936,88.6327 32.2603,92.2994 30.5,95.5C 30.5,88.8333 30.5,82.1667 30.5,75.5C 29.5,75.5 28.5,75.5 27.5,75.5C 26.6981,69.8482 26.5314,64.1815 27,58.5C 27.6947,69.6809 33.1947,73.0142 43.5,68.5C 46.1688,69.687 48.8355,70.5203 51.5,71C 48.3272,68.9128 44.9939,67.0795 41.5,65.5C 40.7838,63.518 39.6171,61.8513 38,60.5C 37.6667,60.8333 37.3333,61.1667 37,61.5C 31.5875,55.8039 28.5875,49.1372 28,41.5C 28.7792,44.3138 30.1125,45.9805 32,46.5C 32.7198,50.7158 34.0531,54.7158 36,58.5C 36.5,57.5 37,56.5 37.5,55.5C 36.4798,53.5675 36.3131,51.5675 37,49.5C 37.6064,52.5478 39.1064,55.0478 41.5,57C 42.7494,57.7401 43.7494,57.5735 44.5,56.5 Z"/></g>
<g><path style="opacity:1" fill="#ebd6d3" d="M 61.5,52.5 C 64.766,52.5674 66.266,50.9008 66,47.5C 66.3333,47.8333 66.6667,48.1667 67,48.5C 67.9366,52.9158 68.1033,57.2492 67.5,61.5C 67.1778,65.747 68.0111,69.747 70,73.5C 72.682,71.6233 73.182,69.2899 71.5,66.5C 72.1283,63.91 73.295,61.5766 75,59.5C 75.3333,59.8333 75.6667,60.1667 76,60.5C 76.3333,63.5 76.6667,66.5 77,69.5C 77.3333,69.1667 77.6667,68.8333 78,68.5C 78.7436,70.8997 79.5769,73.233 80.5,75.5C 80.8212,77.0481 81.8212,77.7148 83.5,77.5C 83.2641,80.6085 83.5975,83.6085 84.5,86.5C 78.6168,92.2802 71.6168,96.2802 63.5,98.5C 63.8333,97.8333 64.1667,97.1667 64.5,96.5C 66.9711,96.767 68.6378,95.767 69.5,93.5C 67.3115,89.0997 65.8115,84.433 65,79.5C 61.6398,77.6319 58.8065,75.1319 56.5,72C 62.8365,71.1632 62.5032,70.4966 55.5,70C 51.723,67.4528 48.3897,64.4528 45.5,61C 49.4877,59.516 51.1544,56.6826 50.5,52.5C 51.1667,52.5 51.5,52.1667 51.5,51.5C 49.0561,49.2123 49.2228,46.8789 52,44.5C 53.7468,47.2104 54.7468,50.2104 55,53.5C 55.3333,52.5 55.6667,51.5 56,50.5C 56.3333,52.5 56.6667,54.5 57,56.5C 58.6667,55.2668 60.1667,53.9335 61.5,52.5 Z"/></g>
<g><path style="opacity:1" fill="#594e4a" d="M 67.5,61.5 C 69.0737,62.9842 70.407,64.6508 71.5,66.5C 73.182,69.2899 72.682,71.6233 70,73.5C 68.0111,69.747 67.1778,65.747 67.5,61.5 Z"/></g>
<g><path style="opacity:0.999" fill="#c8b9ae" d="M 88.5,81.5 C 88.2624,83.4044 87.2624,84.7377 85.5,85.5C 85.5,82.8333 85.5,80.1667 85.5,77.5C 86.5,77.5 87.5,77.5 88.5,77.5C 88.5,78.8333 88.5,80.1667 88.5,81.5 Z"/></g>
<g><path style="opacity:1" fill="#875048" d="M 16.5,78.5 C 16.3259,80.861 15.9926,83.1944 15.5,85.5C 14.8333,85.5 14.5,85.8333 14.5,86.5C 11.7052,84.2486 9.37189,81.5819 7.5,78.5C 10.7104,78.2492 13.7104,78.2492 16.5,78.5 Z"/></g>
<g><path style="opacity:1" fill="#eee9e8" d="M 57.5,86.5 C 56.2876,87.2299 55.2876,88.2299 54.5,89.5C 49.8031,85.8763 49.4698,86.543 53.5,91.5C 50.6717,95.1981 51.005,95.8648 54.5,93.5C 55.6199,94.8334 56.9532,95.3334 58.5,95C 55.0865,93.0856 54.7531,90.9189 57.5,88.5C 59.0265,89.4919 59.6932,90.9919 59.5,93C 59.0234,95.5096 58.0234,97.6763 56.5,99.5C 50.1667,99.5 43.8333,99.5 37.5,99.5C 28.8047,96.9857 21.1381,92.6524 14.5,86.5C 14.5,85.8333 14.8333,85.5 15.5,85.5C 19.9839,89.5775 24.9839,92.9109 30.5,95.5C 32.2603,92.2994 33.0936,88.6327 33,84.5C 35.1718,83.4911 36.3385,81.8244 36.5,79.5C 38.1992,79.6602 39.8659,79.4935 41.5,79C 43.1558,77.1706 45.1558,75.8372 47.5,75C 56.5383,74.192 59.8716,78.0253 57.5,86.5 Z"/></g>
<g><path style="opacity:1" fill="#777079" d="M 57.5,86.5 C 57.5,87.1667 57.5,87.8333 57.5,88.5C 54.7531,90.9189 55.0865,93.0856 58.5,95C 56.9532,95.3334 55.6199,94.8334 54.5,93.5C 51.005,95.8648 50.6717,95.1981 53.5,91.5C 49.4698,86.543 49.8031,85.8763 54.5,89.5C 55.2876,88.2299 56.2876,87.2299 57.5,86.5 Z"/></g>
<g><path style="opacity:1" fill="#9e7c80" d="M 64.5,96.5 C 64.1667,97.1667 63.8333,97.8333 63.5,98.5C 62.8333,98.5 62.1667,98.5 61.5,98.5C 60.5128,93.6946 60.1795,88.6946 60.5,83.5C 61.8221,83.67 62.9887,83.3366 64,82.5C 64.5893,85.7153 64.0893,88.7153 62.5,91.5C 62.9865,93.3042 63.6532,94.9709 64.5,96.5 Z"/></g>
</svg>
